15_ID_stride3.mot
nRows=10
nColumns=38

name 15_ID_stride3.mot
datacolumns 38
datarows 10
range 1.1900000000 1.2350000000
endheader
time	pelvis_tilt_moment	pelvis_list_moment	pelvis_rotation_moment	pelvis_tx_force	pelvis_ty_force	pelvis_tz_force	hip_flexion_r_moment	hip_adduction_r_moment	hip_rotation_r_moment	knee_angle_r_moment	ankle_angle_r_moment	subtalar_angle_r_moment	mtp_angle_r_moment	hip_flexion_l_moment	hip_adduction_l_moment	hip_rotation_l_moment	knee_angle_l_moment	ankle_angle_l_moment	subtalar_angle_l_moment	mtp_angle_l_moment	lumbar_extension_moment	lumbar_bending_moment	lumbar_rotation_moment	arm_flex_r_moment	arm_add_r_moment	arm_rot_r_moment	elbow_flex_r_moment	pro_sup_r_moment	wrist_flex_r_moment	wrist_dev_r_moment	arm_flex_l_moment	arm_add_l_moment	arm_rot_l_moment	elbow_flex_l_moment	pro_sup_l_moment	wrist_flex_l_moment	wrist_dev_l_moment
        1.1900000000	       -2.5488688659	       55.7335583728	       47.6848603119	       47.6796132638	      313.3358918588	      119.1333447947	       56.9156600020	       -0.6469979975	       -0.2816363869	       18.7633920642	        3.9801414393	       -0.4188845432	        0.1873907554	       -3.1884818700	      -12.7005664535	      -12.7609318372	        7.9627331272	        7.3380795247	       -5.4078730666	        0.3242035040	       10.4924724494	        5.4813668780	       12.7475692979	       -5.7083465173	        1.7295809712	        2.3038788978	       -0.4051183487	        0.0694298802	        0.2298996429	        0.1511869520	       -8.8798577379	       -1.3759166355	       -0.4078188863	       -0.6062805452	       -0.0126529399	       -0.0624694130	        0.0993986769	
        1.1950000000	      -25.5540227914	      100.3937663490	       65.4021491522	       45.9779375518	      228.2412794086	       58.3180480942	       61.7259828394	       -0.6713177967	       -0.5995448184	       19.3113860385	        4.0542035362	       -0.3809827682	        0.1935422278	        6.2501111427	      -50.0977719883	       -8.6885100124	       30.1669305130	        1.6260194837	       -1.5143120269	        0.3473284328	       23.4177200239	       10.1003642617	       14.6328705100	       -5.6712285456	        1.7020803687	        2.3922055553	        0.3176628181	        0.0640656056	        0.2549243480	        0.0901661719	       -9.3921096244	       -0.9907748957	       -0.3387146931	       -0.0428588647	       -0.0246967017	       -0.0519600839	        0.0465220348	
        1.2000000000	      -46.8533581802	      124.9288938733	       79.0758318963	       35.0402411634	       97.8453052399	      -22.5452588159	       68.3665571882	        0.7396147668	       -1.1869311044	       19.8644123570	        4.1769058362	       -0.3433517877	        0.2029061484	       -2.2212713831	      -85.0061980003	       -4.5075975926	       45.1007178969	      -13.2729755893	        3.2098630960	        0.3519678222	       32.5325524892	       14.8067102698	       14.7036631451	       -4.9986399915	        1.2955834224	        2.1188191870	        1.1274480911	        0.0430094511	        0.2544713047	        0.0108339339	       -8.9503365913	       -0.2387839362	       -0.0314581807	        0.6689542085	       -0.0327445344	       -0.0126338633	       -0.0172338944	
        1.2050000000	      -60.7594184640	      105.1713542745	       85.5216384076	       24.3433814829	      -40.8699255616	      -81.0693221258	       74.3027337994	        2.4650670085	       -1.8285330604	       20.3040684851	        4.2869871900	       -0.3066086993	        0.2123966710	      -43.0043803852	     -107.9028852588	       -3.0110067472	       43.9824537614	      -37.1758331311	        8.1853821669	        0.3288145824	       37.7519462097	       19.3762910117	       12.5227619779	       -4.1492420563	        0.7647604738	        1.6260659451	        1.9301289980	        0.0145379468	        0.2257067585	       -0.0750320936	       -7.7404652921	        0.6636423282	        0.3859044524	        1.4486578053	       -0.0368541968	        0.0413875873	       -0.0837866678	
        1.2100000000	      -62.5482007038	       64.2690216473	       86.3316878987	       22.0964432610	     -153.2776404948	      -94.5543482822	       76.4725563012	        4.1679361189	       -2.4199319256	       20.6111380558	        4.3153918193	       -0.2700332247	        0.2202451103	     -101.1242959332	     -112.3464259541	       -4.4007632337	       38.9729923960	      -66.3325619293	        9.7183592506	        0.2863775950	       41.2786437838	       24.2074043621	        8.8741973433	       -3.3194598249	        0.2032997906	        1.0329066455	        2.7058798387	       -0.0180592604	        0.1814389926	       -0.1616198548	       -6.1534711711	        1.5971034108	        0.8638056935	        2.2694776370	       -0.0378779754	        0.1047182905	       -0.1509065947	
        1.2150000000	      -51.8619323217	        4.3153656487	       82.5232657394	       27.6967001065	     -214.5671459325	      -87.0910074498	       76.5800905711	        5.6585970686	       -2.9223210555	       20.7946924715	        4.3084255365	       -0.2328597727	        0.2259902381	     -160.1046985359	     -104.8722943039	      -14.8325600887	       31.1313167101	      -97.4319784391	        9.5735300486	        0.2267858517	       44.2380987005	       29.6543052121	        4.2677245842	       -2.6419707465	       -0.3145481901	        0.4197362771	        3.4599178808	       -0.0529227933	        0.1325704620	       -0.2472770689	       -4.4432043030	        2.4943599391	        1.3705101974	        3.1361983991	       -0.0379608450	        0.1745714150	       -0.2189577954	
        1.2200000000	      -29.2426325795	      -42.6248023030	       75.4877694019	       43.8283849340	     -228.5324954536	      -63.1609330823	       73.5093102194	        6.9754548881	       -3.3734494926	       20.8841844808	        4.2320968544	       -0.1933788738	        0.2303633993	     -199.7977386979	      -85.3847506212	      -29.7911632010	       30.7793239367	     -124.6379888198	        6.1987787315	        0.1625310001	       48.5778953452	       36.1587040544	       -0.7518727971	       -2.1457895540	       -0.7484147191	       -0.1569065385	        4.2447111947	       -0.0888229807	        0.0861515870	       -0.3350052822	       -2.7714051282	        3.3353807861	        1.8801398869	        4.0821225570	       -0.0380243778	        0.2482362538	       -0.2919755100	
        1.2250000000	       -4.8613513621	      -62.0430842957	       66.0911740245	       61.3902998600	     -186.8589603703	      -52.1325452856	       69.7741177725	        8.2548679740	       -3.8677111433	       20.8367795952	        4.1395679051	       -0.1486291747	        0.2347213427	     -210.0867133650	      -65.5127191722	      -43.1014311704	       46.7525582847	     -144.2973977237	        3.0465264774	        0.1028214877	       55.6257125993	       43.7939233805	       -5.9483760421	       -1.7808271084	       -1.0992364052	       -0.6892844580	        5.1175305324	       -0.1260410312	        0.0448063904	       -0.4299812173	       -1.1537927342	        4.1476367743	        2.3911267362	        5.1446309910	       -0.0396413647	        0.3256423993	       -0.3745328361	
        1.2300000000	       11.7940899994	      -52.7301043025	       54.1650625592	       68.7226616343	     -111.7763939295	      -59.9287091758	       66.5392258832	        9.5623277148	       -4.4744121284	       20.6104578507	        4.0431634320	       -0.0952644036	        0.2397352394	     -198.2512000670	      -52.6034933728	      -43.7585995671	       74.5779654135	     -155.1407742702	        2.9299465211	        0.0552767717	       65.7955011592	       52.1317390020	      -11.1545459333	       -1.4929677558	       -1.3782287935	       -1.1780809134	        6.0824186134	       -0.1640943470	        0.0093482471	       -0.5329609615	        0.3960304183	        4.9450786125	        2.9004858101	        6.3086019672	       -0.0428412502	        0.4057102731	       -0.4664468350	
        1.2350000000	       12.6477858916	      -28.0104090277	       41.4460242943	       64.2525917868	      -20.6869047413	      -78.6814363427	       63.9825611335	       10.8135911437	       -5.1889934217	       20.1320150819	        3.9321905609	       -0.0308429438	        0.2444646676	     -174.7642002922	      -52.2307815360	      -39.0016011518	      106.5031357704	     -160.4636158976	        4.0220763538	        0.0258758857	       79.0525334661	       60.3624766632	      -16.1100080460	       -1.3971983323	       -1.5737612685	       -1.5973890459	        7.0690929922	       -0.2003641413	       -0.0185411290	       -0.6371514812	        1.7588007458	        5.6843687886	        3.3852882176	        7.4868828409	       -0.0470253625	        0.4841615670	       -0.5610570449	
